<svg width="1079" height="572" viewBox="0 0 1079 572" fill="none" xmlns="http://www.w3.org/2000/svg">
<path d="M683.239 165L947.416 203.728C949.055 203.968 950.189 205.492 949.949 207.131L906.145 505.937L639 466.775L683.239 165Z" fill="#151B23"/>
<path d="M697.415 72.8052L873.069 98.5557C874.708 98.796 875.842 100.32 875.602 101.959L860.728 203.418L682.106 177.233L697.415 72.8052Z" fill="#151B23"/>
<path d="M860.131 343.352C860.342 341.917 859.973 340.457 859.107 339.293C858.241 338.13 856.949 337.358 855.513 337.148L833.87 333.975C832.435 333.765 830.975 334.133 829.811 334.999C828.648 335.865 827.876 337.158 827.666 338.593L820.527 387.291L809.705 385.705L826.891 268.468C827.661 263.216 828.145 259.808 828.18 257.264C828.206 254.872 827.801 254.061 827.451 253.59C827.1 253.118 826.439 252.498 824.141 251.837C821.686 251.138 818.29 250.626 813.038 249.856C807.785 249.086 804.378 248.601 801.833 248.567C799.442 248.541 798.631 248.945 798.159 249.296C797.688 249.647 797.068 250.308 796.407 252.606C795.708 255.061 795.195 258.457 794.425 263.709L777.24 380.946L766.418 379.359L778.844 294.588C779.055 293.153 778.686 291.693 777.82 290.53C776.954 289.366 775.662 288.594 774.227 288.384L752.583 285.211C751.148 285.001 749.688 285.369 748.524 286.235C747.361 287.101 746.589 288.394 746.379 289.829L733.952 374.6L721.327 372.749C719.892 372.539 718.432 372.907 717.268 373.773C716.105 374.639 715.333 375.932 715.123 377.367C714.912 378.802 715.281 380.262 716.147 381.425C717.013 382.589 718.305 383.361 719.74 383.571L864.032 404.723C865.467 404.933 866.927 404.565 868.09 403.699C869.254 402.833 870.025 401.54 870.236 400.105C870.446 398.67 870.078 397.21 869.212 396.047C868.346 394.883 867.053 394.111 865.618 393.901L852.992 392.05L860.131 343.352Z" fill="white"/>
<path d="M926.609 143.881C903.484 113.756 877.495 88.5162 854.046 82.1416C852.728 81.7517 851.384 81.4493 850.026 81.2364L693.032 58.2226C691.781 58.0233 690.502 58.0796 689.274 58.388C688.045 58.6965 686.892 59.2507 685.883 60.0173C683.841 61.5489 682.486 63.8246 682.113 66.3498L623.757 464.439C623.573 465.689 623.638 466.963 623.948 468.187C624.258 469.412 624.806 470.564 625.561 471.577C626.316 472.589 627.263 473.443 628.348 474.09C629.434 474.736 630.636 475.162 631.886 475.343L915.789 516.96C917.036 517.155 918.309 517.095 919.532 516.786C920.755 516.477 921.903 515.924 922.907 515.161C923.934 514.42 924.8 513.479 925.453 512.394C926.106 511.309 926.532 510.103 926.706 508.849L965.539 243.945C969.492 213.099 950.319 176.051 926.609 143.881ZM909.034 496.467L644.177 457.642L699.737 78.6296L847.254 100.254L847.249 100.285C853.737 100.841 858.356 108.009 860.477 123.164C862.314 137.567 860.643 155.752 858.796 168.241C857.481 177.429 856.131 183.516 856.131 183.516L853.88 193.482L864.006 195.077C864.052 195.084 887.402 198.791 909.581 207.364C930.928 215.357 946.759 227.374 946.807 238.357C946.737 239.336 946.626 240.278 946.472 241.182L909.034 496.467Z" fill="white"/>
<rect x="124.829" y="107.718" width="182" height="100.921" transform="rotate(-8.34 124.829 107.718)" fill="#151B23"/>
<path d="M134 192.163L398.176 153.435C399.816 153.195 401.34 154.329 401.58 155.968L445.384 454.775L178.239 493.937L134 192.163Z" fill="#151B23"/>
<path d="M268.528 255.539L280.109 334.538L359.109 322.957C360.838 359.942 334.25 392.928 296.842 398.412C256.996 404.253 219.962 376.689 214.121 336.843C208.637 299.435 232.603 264.498 268.528 255.539ZM282.957 253.424C299.76 252.66 316.31 257.729 329.803 267.772C343.296 277.815 352.902 292.213 356.993 308.528L292.423 317.994L282.957 253.424Z" fill="white"/>
<path d="M368.803 108.046C338.004 85.8252 305.864 69.1071 281.573 69.7308C280.197 69.7359 278.824 69.8317 277.461 70.0177L120.468 93.0326C119.212 93.2007 118.004 93.6215 116.915 94.2696C115.827 94.9177 114.881 95.7797 114.135 96.8034C112.618 98.8567 111.973 101.426 112.34 103.952L170.699 502.041C170.882 503.291 171.31 504.492 171.958 505.576C172.606 506.661 173.462 507.607 174.476 508.36C175.49 509.114 176.642 509.66 177.868 509.967C179.093 510.275 180.367 510.338 181.616 510.152L465.519 468.533C466.769 468.361 467.971 467.939 469.054 467.292C470.137 466.645 471.078 465.786 471.821 464.767C472.592 463.762 473.151 462.612 473.465 461.385C473.779 460.158 473.842 458.881 473.649 457.629L434.815 192.726C429.748 162.043 400.748 132.057 368.803 108.046ZM453.166 450.841L188.31 489.668L132.747 110.657L280.264 89.0309L280.269 89.0618C286.644 87.7325 293.125 93.2729 299.507 107.182C305.4 120.452 309.019 138.35 310.835 150.844C312.212 160.023 312.666 166.241 312.666 166.241L313.37 176.435L323.528 175.056C323.574 175.049 347.006 171.899 370.712 173.745C393.455 175.275 412.069 182.243 415.267 192.749C415.482 193.707 415.645 194.641 415.757 195.551L453.166 450.841Z" fill="white"/>
<path d="M409 150H676C677.657 150 679 151.343 679 153V455H409V150Z" fill="#151B23"/>
<rect x="409" y="69" width="182" height="96" fill="#151B23"/>
<path d="M643.75 103.641C616.5 77.1875 587.125 55.9844 563 53.0781C561.638 52.8836 560.266 52.7792 558.89 52.7656H400.219C398.952 52.7499 397.695 52.9909 396.524 53.4743C395.353 53.9577 394.293 54.6734 393.406 55.5781C391.608 57.3897 390.597 59.8379 390.594 62.3906V464.734C390.594 465.998 390.843 467.248 391.326 468.415C391.81 469.582 392.52 470.642 393.414 471.535C394.308 472.427 395.369 473.135 396.536 473.617C397.704 474.099 398.955 474.346 400.219 474.344H687.156C688.417 474.355 689.668 474.112 690.833 473.629C691.999 473.146 693.054 472.432 693.937 471.531C694.846 470.649 695.566 469.592 696.055 468.424C696.544 467.256 696.791 466.001 696.781 464.734V197C696.218 165.906 671.875 132.031 643.75 103.641ZM677.5 455.047H409.812V71.9844H558.906V72.0156C565.406 71.625 571.015 78.0469 575.312 92.7344C579.218 106.719 580.203 124.953 580.187 137.578C580.219 146.859 579.765 153.078 579.765 153.078L578.984 163.266L589.234 163.375C589.281 163.375 612.922 163.656 636.109 168.922C658.39 173.734 675.797 183.328 677.437 194.187C677.51 195.167 677.536 196.115 677.515 197.031L677.5 455.047Z" fill="white"/>
<rect x="439" y="252" width="209" height="132" rx="20" fill="white"/>
<path d="M482.165 343V292.091H499.366C503.36 292.091 506.625 292.812 509.161 294.254C511.713 295.679 513.602 297.609 514.828 300.045C516.054 302.482 516.668 305.199 516.668 308.199C516.668 311.198 516.054 313.924 514.828 316.377C513.618 318.83 511.746 320.785 509.21 322.244C506.675 323.685 503.427 324.406 499.466 324.406H487.136V318.938H499.267C502.001 318.938 504.197 318.465 505.854 317.521C507.512 316.576 508.713 315.3 509.459 313.692C510.221 312.068 510.602 310.237 510.602 308.199C510.602 306.161 510.221 304.338 509.459 302.73C508.713 301.123 507.503 299.863 505.83 298.952C504.156 298.024 501.935 297.56 499.168 297.56H488.33V343H482.165ZM542.309 343H526.598V292.091H543.005C547.943 292.091 552.169 293.11 555.682 295.148C559.195 297.17 561.888 300.079 563.761 303.874C565.634 307.652 566.57 312.176 566.57 317.446C566.57 322.749 565.625 327.315 563.736 331.143C561.847 334.954 559.096 337.888 555.483 339.942C551.871 341.981 547.479 343 542.309 343ZM532.763 337.531H541.911C546.12 337.531 549.609 336.719 552.376 335.095C555.144 333.471 557.207 331.159 558.566 328.16C559.925 325.16 560.604 321.589 560.604 317.446C560.604 313.336 559.933 309.798 558.591 306.832C557.248 303.849 555.243 301.562 552.575 299.971C549.907 298.363 546.584 297.56 542.607 297.56H532.763V337.531ZM576.911 343V292.091H607.436V297.56H583.076V314.761H605.15V320.23H583.076V343H576.911Z" fill="#151B23"/>
</svg>
