<svg width="21" height="27" viewBox="0 0 21 27" fill="none" xmlns="http://www.w3.org/2000/svg">
<path d="M0.275568 27V0.818181H10.7585C12.6847 0.818181 14.2912 1.10369 15.5781 1.67472C16.8651 2.24574 17.8324 3.03835 18.4801 4.05256C19.1278 5.05824 19.4517 6.21733 19.4517 7.52983C19.4517 8.55256 19.2472 9.4517 18.8381 10.2273C18.429 10.9943 17.8665 11.625 17.1506 12.1193C16.4432 12.6051 15.6335 12.9503 14.7216 13.1548V13.4105C15.7188 13.4531 16.652 13.7344 17.5213 14.2543C18.3991 14.7741 19.1108 15.5028 19.6562 16.4403C20.2017 17.3693 20.4744 18.4773 20.4744 19.7642C20.4744 21.1534 20.1293 22.3935 19.4389 23.4844C18.7571 24.5668 17.7472 25.4233 16.4091 26.054C15.071 26.6847 13.4219 27 11.4616 27H0.275568ZM5.81108 22.4744H10.3239C11.8665 22.4744 12.9915 22.1804 13.6989 21.5923C14.4063 20.9957 14.7599 20.2031 14.7599 19.2145C14.7599 18.4901 14.5852 17.8509 14.2358 17.2969C13.8864 16.7429 13.3878 16.3082 12.7401 15.9929C12.1009 15.6776 11.3381 15.5199 10.4517 15.5199H5.81108V22.4744ZM5.81108 11.7741H9.91477C10.6733 11.7741 11.3466 11.642 11.9347 11.3778C12.5313 11.1051 13 10.7216 13.3409 10.2273C13.6903 9.73295 13.8651 9.14062 13.8651 8.45028C13.8651 7.50426 13.5284 6.74148 12.8551 6.16193C12.1903 5.58239 11.2443 5.29261 10.017 5.29261H5.81108V11.7741Z" fill="black"/>
</svg>
