<svg width="14" height="26" viewBox="0 0 14 26" fill="none" xmlns="http://www.w3.org/2000/svg">
<path d="M4.712 1.11L4.902 0.16H13.224L13.034 1.11L10.944 1.3C10.6653 1.32533 10.4627 1.376 10.336 1.452C10.2093 1.50266 10.108 1.65467 10.032 1.908C9.956 2.136 9.86733 2.554 9.766 3.162L6.27 22.998C6.118 23.8847 6.06733 24.404 6.118 24.556C6.16867 24.708 6.384 24.8093 6.764 24.86L8.816 25.05L8.664 26H0.342L0.494 25.05L2.622 24.86C2.90067 24.8347 3.10333 24.7967 3.23 24.746C3.35667 24.67 3.458 24.5053 3.534 24.252C3.61 23.9987 3.69867 23.5807 3.8 22.998L7.296 3.162C7.448 2.27533 7.49867 1.756 7.448 1.604C7.39733 1.42667 7.182 1.32533 6.802 1.3L4.712 1.11Z" fill="black"/>
</svg>
