<svg width="1079" height="572" viewBox="0 0 1079 572" fill="none" xmlns="http://www.w3.org/2000/svg">
<path d="M683.239 165L947.416 203.728C949.055 203.968 950.189 205.492 949.949 207.131L906.145 505.937L639 466.775L683.239 165Z" fill="#374151"/>
<path d="M697.415 72.8052L873.069 98.5557C874.708 98.796 875.842 100.32 875.602 101.959L860.728 203.418L682.106 177.233L697.415 72.8052Z" fill="#374151"/>
<path d="M860.131 343.352C860.342 341.917 859.973 340.457 859.107 339.293C858.241 338.13 856.949 337.358 855.513 337.148L833.87 333.975C832.435 333.765 830.975 334.133 829.811 334.999C828.648 335.865 827.876 337.158 827.666 338.593L820.527 387.291L809.705 385.705L826.891 268.468C827.661 263.216 828.145 259.808 828.18 257.264C828.206 254.872 827.801 254.061 827.451 253.59C827.1 253.118 826.439 252.498 824.141 251.837C821.686 251.138 818.29 250.626 813.038 249.856C807.785 249.086 804.378 248.601 801.833 248.567C799.442 248.541 798.631 248.945 798.159 249.296C797.688 249.647 797.068 250.308 796.407 252.606C795.708 255.061 795.195 258.457 794.425 263.709L777.24 380.946L766.418 379.359L778.844 294.588C779.055 293.153 778.686 291.693 777.82 290.53C776.954 289.366 775.662 288.594 774.227 288.384L752.583 285.211C751.148 285.001 749.688 285.369 748.524 286.235C747.361 287.101 746.589 288.394 746.379 289.829L733.952 374.6L721.327 372.749C719.892 372.539 718.432 372.907 717.268 373.773C716.105 374.639 715.333 375.932 715.123 377.367C714.912 378.802 715.281 380.262 716.147 381.425C717.013 382.589 718.305 383.361 719.74 383.571L864.032 404.723C865.467 404.933 866.927 404.565 868.09 403.699C869.254 402.833 870.025 401.54 870.236 400.105C870.446 398.67 870.078 397.21 869.212 396.047C868.346 394.883 867.053 394.111 865.618 393.901L852.992 392.05L860.131 343.352Z" fill="white"/>
<path d="M692.953 58.7167L849.948 81.7306L850.449 81.8128C851.615 82.0154 852.769 82.2858 853.905 82.6215L853.916 82.624C865.533 85.7825 877.824 93.6303 890.118 104.48C902.405 115.324 914.662 129.139 926.212 144.186C938.051 160.249 948.745 177.516 955.987 194.605C963.118 211.433 966.885 228.052 965.13 243.163L965.043 243.882L926.211 508.78C926.046 509.967 925.643 511.109 925.024 512.136C924.406 513.163 923.586 514.054 922.614 514.755L922.604 514.763C921.653 515.485 920.566 516.009 919.409 516.302C918.251 516.594 917.046 516.65 915.867 516.467L631.958 474.848C630.773 474.677 629.633 474.272 628.604 473.66C627.575 473.047 626.677 472.238 625.961 471.278C625.245 470.318 624.726 469.226 624.432 468.065C624.139 466.904 624.078 465.697 624.251 464.512L682.607 66.4226L682.684 65.9769C683.125 63.7611 684.367 61.7786 686.183 60.4168L686.186 60.4153C687.141 59.6898 688.232 59.1652 689.395 58.8732C690.558 58.5812 691.769 58.5281 692.953 58.7167ZM643.61 458.064L909.456 497.034L909.529 496.54L946.965 241.265C947.122 240.344 947.236 239.387 947.306 238.393L947.307 238.373L947.307 238.354C947.282 232.63 943.159 226.752 936.496 221.351C929.81 215.931 920.463 210.905 909.756 206.896C887.667 198.358 864.432 194.638 864.082 194.583L864.083 194.583L854.484 193.071L856.618 183.626L856.619 183.626L856.62 183.619C856.621 183.616 856.622 183.611 856.623 183.605C856.626 183.593 856.63 183.575 856.635 183.552C856.645 183.504 856.661 183.434 856.681 183.341C856.72 183.155 856.778 182.881 856.852 182.522C857 181.805 857.211 180.754 857.462 179.416C857.902 177.074 858.468 173.852 859.044 170.001L859.291 168.312C861.14 155.81 862.818 137.573 860.973 123.101L860.972 123.095L860.765 121.692C859.693 114.789 858.068 109.593 855.931 105.995C853.76 102.34 851.036 100.3 847.819 99.8477L847.821 99.8322L699.314 78.0626L643.61 458.064Z" fill="#F9F8F8" stroke="#D4D4D4"/>
<rect x="124.829" y="107.718" width="182" height="100.921" transform="rotate(-8.34 124.829 107.718)" fill="#374151"/>
<path d="M134 192.163L398.176 153.435C399.816 153.195 401.34 154.329 401.58 155.968L445.384 454.775L178.239 493.937L134 192.163Z" fill="#374151"/>
<path d="M268.528 255.539L280.109 334.538L359.109 322.957C360.838 359.942 334.25 392.928 296.842 398.412C256.996 404.253 219.962 376.689 214.121 336.843C208.637 299.435 232.603 264.498 268.528 255.539ZM282.957 253.424C299.76 252.66 316.31 257.729 329.803 267.772C343.296 277.815 352.902 292.213 356.993 308.528L292.423 317.994L282.957 253.424Z" fill="#F9F8F8"/>
<path d="M120.534 93.5284L277.529 70.5134L278.032 70.4485C279.207 70.3078 280.391 70.2355 281.575 70.2312L281.586 70.2306C293.621 69.9216 307.648 73.9114 322.538 80.7762C337.42 87.6376 353.127 97.353 368.51 108.451C384.461 120.441 399.661 133.912 411.503 148.203C423.164 162.277 431.543 177.116 434.199 192.094L434.321 192.808L473.155 457.706C473.337 458.89 473.278 460.1 472.981 461.261C472.683 462.422 472.154 463.511 471.424 464.462L471.416 464.472C470.713 465.437 469.822 466.251 468.797 466.863C467.772 467.476 466.634 467.875 465.452 468.038L181.543 509.658C180.358 509.834 179.151 509.774 177.989 509.482C176.828 509.191 175.735 508.673 174.773 507.959C173.812 507.245 173.001 506.348 172.387 505.32C171.773 504.292 171.368 503.153 171.194 501.968L112.835 103.88L112.781 103.431C112.567 101.182 113.188 98.9258 114.537 97.1001L114.539 97.0978C115.246 96.1289 116.14 95.313 117.171 94.6996C118.201 94.086 119.346 93.6875 120.534 93.5284ZM187.887 490.236L453.733 451.263L453.661 450.769L416.254 195.49C416.139 194.563 415.973 193.613 415.756 192.64L415.751 192.621L415.746 192.603C414.078 187.127 408.442 182.68 400.509 179.418C392.549 176.145 382.153 174.013 370.745 173.246C347.135 171.408 323.81 174.513 323.459 174.561L323.46 174.561L313.831 175.867L313.164 166.207L313.165 166.207L313.164 166.2C313.164 166.197 313.163 166.192 313.163 166.186C313.162 166.173 313.161 166.155 313.159 166.131C313.155 166.083 313.15 166.011 313.142 165.916C313.127 165.727 313.103 165.447 313.071 165.083C313.007 164.354 312.907 163.286 312.764 161.932C312.514 159.562 312.131 156.314 311.577 152.459L311.329 150.77C309.512 138.264 305.885 120.312 299.964 106.979L299.961 106.973L299.36 105.689C296.352 99.3842 293.304 94.8729 290.224 92.0393C287.096 89.1613 283.901 87.9893 280.689 88.4794L280.687 88.4639L132.18 110.235L187.887 490.236Z" fill="#F9F8F8" stroke="#D4D4D4"/>
<path d="M409 150H676C677.657 150 679 151.343 679 153V455H409V150Z" fill="#374151"/>
<rect x="409" y="69" width="182" height="96" fill="#374151"/>
<path d="M400.213 53.2659H558.885L559.392 53.2747C560.576 53.3059 561.757 53.406 562.929 53.5735L562.94 53.5745C574.893 55.0145 588.193 60.9966 601.929 69.9485C615.66 78.896 629.791 90.7869 643.401 103.999C657.444 118.176 670.531 133.709 680.175 149.567C689.671 165.183 695.808 181.08 696.263 196.285L696.281 197.009V464.739C696.29 465.937 696.056 467.125 695.594 468.231C695.131 469.337 694.449 470.337 693.589 471.172L693.58 471.181C692.744 472.034 691.744 472.71 690.641 473.167C689.539 473.625 688.355 473.855 687.161 473.844H400.218C399.02 473.846 397.834 473.611 396.727 473.155C395.62 472.698 394.614 472.027 393.766 471.181C392.919 470.335 392.247 469.33 391.788 468.224C391.329 467.118 391.094 465.932 391.094 464.735V62.3909L391.105 61.9387C391.219 59.6825 392.161 57.5407 393.76 55.9299L393.763 55.928C394.603 55.0717 395.606 54.3943 396.715 53.9368C397.823 53.4792 399.014 53.2509 400.213 53.2659ZM409.312 455.547H678V455.047L678.015 197.042C678.037 196.109 678.01 195.145 677.936 194.151L677.934 194.131L677.931 194.113C677.076 188.452 672.144 183.235 664.768 178.857C657.367 174.464 647.39 170.847 636.215 168.433C613.121 163.189 589.591 162.879 589.238 162.875H589.239L579.523 162.771L580.264 153.116V153.11C580.265 153.106 580.265 153.101 580.265 153.095C580.266 153.083 580.268 153.064 580.269 153.04C580.273 152.992 580.278 152.92 580.284 152.825C580.296 152.636 580.314 152.356 580.335 151.99C580.377 151.26 580.433 150.189 580.488 148.828C580.584 146.448 580.676 143.178 580.687 139.283V137.576C580.703 124.939 579.719 106.651 575.794 92.5999L575.792 92.594L575.384 91.2356C573.322 84.5616 570.961 79.6559 568.324 76.4055C565.646 73.1042 562.655 71.4812 559.406 71.5002V71.4846H409.312V455.547Z" fill="#F9F8F8" stroke="#D4D4D4"/>
<rect x="439" y="252" width="209" height="132" rx="20" fill="white"/>
<path d="M480.425 343V292.091H500.51C504.371 292.091 507.661 292.828 510.379 294.303C513.096 295.762 515.168 297.792 516.593 300.393C518.035 302.979 518.756 305.962 518.756 309.342C518.756 312.723 518.027 315.706 516.568 318.291C515.11 320.876 512.997 322.89 510.229 324.332C507.478 325.773 504.147 326.494 500.237 326.494H487.435V317.869H498.496C500.568 317.869 502.275 317.512 503.617 316.8C504.976 316.071 505.987 315.068 506.65 313.792C507.329 312.499 507.669 311.016 507.669 309.342C507.669 307.652 507.329 306.177 506.65 304.918C505.987 303.642 504.976 302.656 503.617 301.96C502.258 301.247 500.535 300.891 498.447 300.891H491.188V343H480.425ZM543.794 343H525.747V292.091H543.943C549.064 292.091 553.472 293.11 557.167 295.148C560.863 297.17 563.705 300.079 565.694 303.874C567.699 307.669 568.702 312.209 568.702 317.496C568.702 322.799 567.699 327.356 565.694 331.168C563.705 334.979 560.846 337.904 557.118 339.942C553.406 341.981 548.964 343 543.794 343ZM536.51 333.778H543.346C546.528 333.778 549.205 333.214 551.376 332.087C553.563 330.944 555.204 329.179 556.297 326.793C557.408 324.39 557.963 321.291 557.963 317.496C557.963 313.734 557.408 310.66 556.297 308.273C555.204 305.887 553.571 304.13 551.4 303.004C549.229 301.877 546.553 301.313 543.371 301.313H536.51V333.778ZM576.675 343V292.091H610.382V300.965H587.438V313.096H608.145V321.97H587.438V343H576.675Z" fill="#374151"/>
</svg>
