<svg width="24" height="27" viewBox="0 0 24 27" fill="none" xmlns="http://www.w3.org/2000/svg">
<path d="M18.6023 0.727272H20.7273V16.1364C20.7273 17.7197 20.3561 19.1364 19.6136 20.3864C18.8712 21.6288 17.8371 22.6098 16.5114 23.3295C15.1932 24.0417 13.6591 24.3977 11.9091 24.3977C10.1667 24.3977 8.63258 24.0379 7.30682 23.3182C5.98106 22.5985 4.94697 21.6174 4.20455 20.375C3.46212 19.1326 3.09091 17.7197 3.09091 16.1364V0.727272H5.21591V15.9886C5.21591 17.2235 5.49242 18.3258 6.04545 19.2955C6.59848 20.2576 7.375 21.0152 8.375 21.5682C9.38258 22.1212 10.5606 22.3977 11.9091 22.3977C13.2576 22.3977 14.4356 22.1212 15.4432 21.5682C16.4508 21.0152 17.2273 20.2576 17.7727 19.2955C18.3258 18.3258 18.6023 17.2235 18.6023 15.9886V0.727272Z" fill="black"/>
<path d="M0 25.92H23.8182V26.56H0V25.92Z" fill="black"/>
</svg>
