<svg width="100" height="100" viewBox="0 0 100 100" fill="none" xmlns="http://www.w3.org/2000/svg">
<path d="M8.33325 8.33325H91.6666V91.6666H8.33325V8.33325ZM16.6666 83.3333H73.2749L37.4999 47.5583L16.6666 68.3916V83.3333ZM83.3333 81.6083V16.6666H16.6666V56.6083L37.4999 35.7749L83.3333 81.6083ZM64.7791 29.1666C63.674 29.1666 62.6142 29.6056 61.8328 30.387C61.0514 31.1684 60.6124 32.2282 60.6124 33.3333C60.6124 34.4383 61.0514 35.4981 61.8328 36.2795C62.6142 37.0609 63.674 37.4999 64.7791 37.4999C65.8842 37.4999 66.944 37.0609 67.7254 36.2795C68.5068 35.4981 68.9458 34.4383 68.9458 33.3333C68.9458 32.2282 68.5068 31.1684 67.7254 30.387C66.944 29.6056 65.8842 29.1666 64.7791 29.1666ZM52.2791 33.3333C52.2791 30.018 53.596 26.8386 55.9403 24.4944C58.2845 22.1502 61.4639 20.8333 64.7791 20.8333C68.0943 20.8333 71.2737 22.1502 73.6179 24.4944C75.9621 26.8386 77.2791 30.018 77.2791 33.3333C77.2791 36.6485 75.9621 39.8279 73.6179 42.1721C71.2737 44.5163 68.0943 45.8333 64.7791 45.8333C61.4639 45.8333 58.2845 44.5163 55.9403 42.1721C53.596 39.8279 52.2791 36.6485 52.2791 33.3333Z" fill="black"/>
</svg>
