<svg width="100" height="100" viewBox="0 0 100 100" fill="none" xmlns="http://www.w3.org/2000/svg">
<path fill-rule="evenodd" clip-rule="evenodd" d="M33.0583 8.33325H66.9417C70.6333 8.33325 73.8167 8.33325 76.3667 8.67492C79.0958 9.04159 81.7167 9.87075 83.8375 11.9958C85.9625 14.1208 86.7917 16.7374 87.1583 19.4666C87.5 22.0166 87.5 25.1999 87.5 28.8916V33.1249C87.5 34.23 87.061 35.2898 86.2796 36.0712C85.4982 36.8526 84.4384 37.2916 83.3333 37.2916C82.2283 37.2916 81.1685 36.8526 80.387 36.0712C79.6056 35.2898 79.1667 34.23 79.1667 33.1249V29.1666C79.1667 25.1208 79.1583 22.5041 78.9 20.5791C78.6542 18.7708 78.2625 18.2041 77.9458 17.8874C77.6292 17.5708 77.0625 17.1791 75.2542 16.9333C73.3333 16.6749 70.7125 16.6666 66.6667 16.6666H54.1667V87.4999C54.1667 88.605 53.7277 89.6648 52.9463 90.4462C52.1649 91.2276 51.1051 91.6666 50 91.6666C48.8949 91.6666 47.8351 91.2276 47.0537 90.4462C46.2723 89.6648 45.8333 88.605 45.8333 87.4999V16.6666H33.3333C29.2875 16.6666 26.6708 16.6749 24.7458 16.9333C22.9375 17.1791 22.3708 17.5708 22.0542 17.8874C21.7375 18.2041 21.3458 18.7708 21.1 20.5791C20.8417 22.4999 20.8333 25.1208 20.8333 29.1666V33.1249C20.8333 34.23 20.3943 35.2898 19.6129 36.0712C18.8315 36.8526 17.7717 37.2916 16.6667 37.2916C15.5616 37.2916 14.5018 36.8526 13.7204 36.0712C12.939 35.2898 12.5 34.23 12.5 33.1249V28.8916C12.5 25.1999 12.5 22.0166 12.8417 19.4666C13.2083 16.7374 14.0375 14.1166 16.1625 11.9958C18.2875 9.87075 20.9042 9.04159 23.6333 8.67492C26.1833 8.33325 29.3667 8.33325 33.0583 8.33325Z" fill="#525151"/>
<path d="M29.1667 87.5H70.8334" stroke="#525151" stroke-width="2" stroke-linecap="round" stroke-linejoin="round"/>
</svg>
