<svg width="696" height="213" viewBox="0 0 696 213" fill="none" xmlns="http://www.w3.org/2000/svg">
<rect x="30" y="27" width="636" height="171" rx="20" fill="#093019"/>
<path d="M167.184 93H175.641V118.977C175.641 121.893 174.944 124.445 173.551 126.633C172.171 128.82 170.237 130.526 167.75 131.75C165.263 132.961 162.366 133.566 159.059 133.566C155.738 133.566 152.835 132.961 150.348 131.75C147.861 130.526 145.927 128.82 144.547 126.633C143.167 124.445 142.477 121.893 142.477 118.977V93H150.934V118.254C150.934 119.777 151.266 121.132 151.93 122.316C152.607 123.501 153.557 124.432 154.781 125.109C156.005 125.786 157.431 126.125 159.059 126.125C160.699 126.125 162.125 125.786 163.336 125.109C164.56 124.432 165.504 123.501 166.168 122.316C166.845 121.132 167.184 119.777 167.184 118.254V93ZM182.442 144.25V103H190.646V108.039H191.017C191.381 107.232 191.909 106.411 192.599 105.578C193.302 104.732 194.213 104.029 195.333 103.469C196.466 102.896 197.872 102.609 199.552 102.609C201.739 102.609 203.757 103.182 205.606 104.328C207.455 105.461 208.933 107.173 210.04 109.465C211.147 111.743 211.7 114.602 211.7 118.039C211.7 121.385 211.16 124.211 210.079 126.516C209.011 128.807 207.553 130.546 205.704 131.73C203.868 132.902 201.811 133.488 199.532 133.488C197.918 133.488 196.544 133.221 195.411 132.687C194.291 132.154 193.373 131.483 192.657 130.676C191.941 129.855 191.394 129.029 191.017 128.195H190.763V144.25H182.442ZM190.587 118C190.587 119.784 190.834 121.34 191.329 122.668C191.824 123.996 192.54 125.031 193.478 125.773C194.415 126.503 195.554 126.867 196.896 126.867C198.25 126.867 199.396 126.496 200.333 125.754C201.271 124.999 201.98 123.957 202.462 122.629C202.957 121.288 203.204 119.745 203.204 118C203.204 116.268 202.963 114.745 202.481 113.43C202 112.115 201.29 111.086 200.353 110.344C199.415 109.602 198.263 109.23 196.896 109.23C195.541 109.23 194.396 109.589 193.458 110.305C192.534 111.021 191.824 112.036 191.329 113.352C190.834 114.667 190.587 116.216 190.587 118ZM225.567 93V133H217.247V93H225.567ZM245.787 133.586C242.753 133.586 240.13 132.941 237.916 131.652C235.715 130.35 234.016 128.54 232.818 126.223C231.62 123.892 231.021 121.19 231.021 118.117C231.021 115.018 231.62 112.31 232.818 109.992C234.016 107.661 235.715 105.852 237.916 104.562C240.13 103.26 242.753 102.609 245.787 102.609C248.821 102.609 251.438 103.26 253.639 104.562C255.852 105.852 257.558 107.661 258.756 109.992C259.954 112.31 260.553 115.018 260.553 118.117C260.553 121.19 259.954 123.892 258.756 126.223C257.558 128.54 255.852 130.35 253.639 131.652C251.438 132.941 248.821 133.586 245.787 133.586ZM245.826 127.141C247.206 127.141 248.359 126.75 249.283 125.969C250.208 125.174 250.904 124.094 251.373 122.727C251.855 121.359 252.096 119.803 252.096 118.059C252.096 116.314 251.855 114.758 251.373 113.391C250.904 112.023 250.208 110.943 249.283 110.148C248.359 109.354 247.206 108.957 245.826 108.957C244.433 108.957 243.261 109.354 242.311 110.148C241.373 110.943 240.663 112.023 240.182 113.391C239.713 114.758 239.479 116.314 239.479 118.059C239.479 119.803 239.713 121.359 240.182 122.727C240.663 124.094 241.373 125.174 242.311 125.969C243.261 126.75 244.433 127.141 245.826 127.141ZM274.518 133.566C272.604 133.566 270.898 133.234 269.4 132.57C267.903 131.893 266.718 130.897 265.846 129.582C264.986 128.254 264.557 126.6 264.557 124.621C264.557 122.954 264.863 121.555 265.475 120.422C266.087 119.289 266.92 118.378 267.975 117.687C269.029 116.997 270.227 116.477 271.568 116.125C272.923 115.773 274.342 115.526 275.826 115.383C277.571 115.201 278.977 115.031 280.045 114.875C281.113 114.706 281.887 114.458 282.369 114.133C282.851 113.807 283.092 113.326 283.092 112.687V112.57C283.092 111.333 282.701 110.376 281.92 109.699C281.152 109.022 280.058 108.684 278.639 108.684C277.141 108.684 275.95 109.016 275.064 109.68C274.179 110.331 273.593 111.151 273.307 112.141L265.611 111.516C266.002 109.693 266.77 108.117 267.916 106.789C269.062 105.448 270.54 104.419 272.35 103.703C274.173 102.974 276.282 102.609 278.678 102.609C280.344 102.609 281.939 102.805 283.463 103.195C284.999 103.586 286.36 104.191 287.545 105.012C288.743 105.832 289.687 106.887 290.377 108.176C291.067 109.452 291.412 110.982 291.412 112.766V133H283.521V128.84H283.287C282.805 129.777 282.161 130.604 281.354 131.32C280.546 132.023 279.576 132.577 278.443 132.98C277.311 133.371 276.002 133.566 274.518 133.566ZM276.9 127.824C278.124 127.824 279.205 127.583 280.143 127.102C281.08 126.607 281.816 125.943 282.35 125.109C282.883 124.276 283.15 123.332 283.15 122.277V119.094C282.89 119.263 282.532 119.419 282.076 119.562C281.633 119.693 281.132 119.816 280.572 119.934C280.012 120.038 279.452 120.135 278.893 120.227C278.333 120.305 277.825 120.376 277.369 120.441C276.393 120.585 275.54 120.812 274.811 121.125C274.081 121.437 273.515 121.861 273.111 122.395C272.708 122.915 272.506 123.566 272.506 124.348C272.506 125.48 272.916 126.346 273.736 126.945C274.57 127.531 275.624 127.824 276.9 127.824ZM308.922 133.488C306.643 133.488 304.579 132.902 302.73 131.73C300.895 130.546 299.436 128.807 298.355 126.516C297.288 124.211 296.754 121.385 296.754 118.039C296.754 114.602 297.307 111.743 298.414 109.465C299.521 107.173 300.992 105.461 302.828 104.328C304.677 103.182 306.702 102.609 308.902 102.609C310.582 102.609 311.982 102.896 313.102 103.469C314.234 104.029 315.146 104.732 315.836 105.578C316.539 106.411 317.073 107.232 317.438 108.039H317.691V93H325.992V133H317.789V128.195H317.438C317.047 129.029 316.493 129.855 315.777 130.676C315.074 131.483 314.156 132.154 313.023 132.687C311.904 133.221 310.536 133.488 308.922 133.488ZM311.559 126.867C312.9 126.867 314.033 126.503 314.957 125.773C315.895 125.031 316.611 123.996 317.105 122.668C317.613 121.34 317.867 119.784 317.867 118C317.867 116.216 317.62 114.667 317.125 113.352C316.63 112.036 315.914 111.021 314.977 110.305C314.039 109.589 312.9 109.23 311.559 109.23C310.191 109.23 309.039 109.602 308.102 110.344C307.164 111.086 306.454 112.115 305.973 113.43C305.491 114.745 305.25 116.268 305.25 118C305.25 119.745 305.491 121.288 305.973 122.629C306.467 123.957 307.177 124.999 308.102 125.754C309.039 126.496 310.191 126.867 311.559 126.867ZM345.719 133V93H361.5C364.534 93 367.118 93.5794 369.254 94.7383C371.389 95.8841 373.017 97.4792 374.137 99.5234C375.27 101.555 375.836 103.898 375.836 106.555C375.836 109.211 375.263 111.555 374.117 113.586C372.971 115.617 371.311 117.199 369.137 118.332C366.975 119.465 364.358 120.031 361.285 120.031H351.227V113.254H359.918C361.546 113.254 362.887 112.974 363.941 112.414C365.009 111.841 365.803 111.053 366.324 110.051C366.858 109.035 367.125 107.87 367.125 106.555C367.125 105.227 366.858 104.068 366.324 103.078C365.803 102.076 365.009 101.301 363.941 100.754C362.874 100.194 361.52 99.9141 359.879 99.9141H354.176V133H345.719ZM395.509 133H381.329V93H395.626C399.649 93 403.113 93.8008 406.017 95.4023C408.92 96.9909 411.153 99.276 412.716 102.258C414.291 105.24 415.079 108.807 415.079 112.961C415.079 117.128 414.291 120.708 412.716 123.703C411.153 126.698 408.907 128.996 405.978 130.598C403.061 132.199 399.571 133 395.509 133ZM389.786 125.754H395.157C397.657 125.754 399.76 125.311 401.466 124.426C403.185 123.527 404.474 122.141 405.333 120.266C406.205 118.378 406.642 115.943 406.642 112.961C406.642 110.005 406.205 107.59 405.333 105.715C404.474 103.84 403.191 102.46 401.485 101.574C399.78 100.689 397.677 100.246 395.177 100.246H389.786V125.754ZM421.344 133V93H447.828V99.9727H429.801V109.504H446.07V116.477H429.801V133H421.344ZM466.246 133V93H492.73V99.9727H474.703V109.504H490.973V116.477H474.703V133H466.246ZM498.263 133V103H506.583V133H498.263ZM502.442 99.1328C501.205 99.1328 500.144 98.7227 499.259 97.9023C498.386 97.069 497.95 96.0729 497.95 94.9141C497.95 93.7682 498.386 92.7852 499.259 91.9648C500.144 91.1315 501.205 90.7148 502.442 90.7148C503.679 90.7148 504.734 91.1315 505.606 91.9648C506.492 92.7852 506.935 93.7682 506.935 94.9141C506.935 96.0729 506.492 97.069 505.606 97.9023C504.734 98.7227 503.679 99.1328 502.442 99.1328ZM521.568 93V133H513.248V93H521.568ZM541.905 133.586C538.819 133.586 536.163 132.961 533.937 131.711C531.723 130.448 530.017 128.664 528.819 126.359C527.621 124.042 527.022 121.301 527.022 118.137C527.022 115.051 527.621 112.342 528.819 110.012C530.017 107.681 531.703 105.865 533.878 104.562C536.065 103.26 538.631 102.609 541.573 102.609C543.552 102.609 545.395 102.928 547.101 103.566C548.819 104.191 550.317 105.135 551.593 106.398C552.882 107.661 553.884 109.25 554.601 111.164C555.317 113.065 555.675 115.292 555.675 117.844V120.129H530.343V114.973H547.843C547.843 113.775 547.582 112.714 547.062 111.789C546.541 110.865 545.818 110.142 544.894 109.621C543.982 109.087 542.921 108.82 541.71 108.82C540.447 108.82 539.327 109.113 538.351 109.699C537.387 110.272 536.632 111.047 536.085 112.023C535.538 112.987 535.258 114.061 535.245 115.246V120.148C535.245 121.633 535.519 122.915 536.065 123.996C536.625 125.077 537.413 125.91 538.429 126.496C539.444 127.082 540.649 127.375 542.042 127.375C542.966 127.375 543.813 127.245 544.581 126.984C545.349 126.724 546.007 126.333 546.554 125.812C547.101 125.292 547.517 124.654 547.804 123.898L555.499 124.406C555.108 126.255 554.308 127.87 553.097 129.25C551.899 130.617 550.349 131.685 548.448 132.453C546.56 133.208 544.379 133.586 541.905 133.586Z" fill="white"/>
</svg>
