<svg width="1920" height="1080" viewBox="0 0 1920 1080" fill="none" xmlns="http://www.w3.org/2000/svg">
<rect width="1920" height="1080" rx="30" fill="#151B23"/>
<path d="M1281.13 436.352C1281.34 434.917 1280.97 433.457 1280.11 432.293C1279.24 431.13 1277.95 430.358 1276.51 430.148L1254.87 426.975C1253.43 426.765 1251.97 427.133 1250.81 427.999C1249.65 428.865 1248.88 430.158 1248.67 431.593L1241.53 480.291L1230.71 478.705L1247.89 361.468C1248.66 356.216 1249.15 352.808 1249.18 350.264C1249.21 347.872 1248.8 347.061 1248.45 346.59C1248.1 346.118 1247.44 345.498 1245.14 344.837C1242.69 344.138 1239.29 343.626 1234.04 342.856C1228.79 342.086 1225.38 341.601 1222.83 341.567C1220.44 341.541 1219.63 341.945 1219.16 342.296C1218.69 342.647 1218.07 343.308 1217.41 345.606C1216.71 348.061 1216.2 351.457 1215.43 356.709L1198.24 473.946L1187.42 472.359L1199.84 387.588C1200.05 386.153 1199.69 384.693 1198.82 383.53C1197.95 382.366 1196.66 381.594 1195.23 381.384L1173.58 378.211C1172.15 378.001 1170.69 378.369 1169.52 379.235C1168.36 380.101 1167.59 381.394 1167.38 382.829L1154.95 467.6L1142.33 465.749C1140.89 465.539 1139.43 465.907 1138.27 466.773C1137.1 467.639 1136.33 468.932 1136.12 470.367C1135.91 471.802 1136.28 473.262 1137.15 474.425C1138.01 475.589 1139.31 476.361 1140.74 476.571L1285.03 497.723C1286.47 497.933 1287.93 497.565 1289.09 496.699C1290.25 495.833 1291.03 494.54 1291.24 493.105C1291.45 491.67 1291.08 490.21 1290.21 489.047C1289.35 487.883 1288.05 487.111 1286.62 486.901L1273.99 485.05L1281.13 436.352Z" fill="white"/>
<path d="M1347.61 236.881C1324.48 206.756 1298.49 181.516 1275.05 175.142C1273.73 174.752 1272.38 174.449 1271.03 174.236L1114.03 151.223C1112.78 151.023 1111.5 151.08 1110.27 151.388C1109.05 151.696 1107.89 152.251 1106.88 153.017C1104.84 154.549 1103.49 156.825 1103.11 159.35L1044.76 557.439C1044.57 558.689 1044.64 559.963 1044.95 561.187C1045.26 562.412 1045.81 563.564 1046.56 564.577C1047.32 565.589 1048.26 566.443 1049.35 567.09C1050.43 567.736 1051.64 568.162 1052.89 568.343L1336.79 609.96C1338.04 610.155 1339.31 610.095 1340.53 609.786C1341.75 609.477 1342.9 608.924 1343.91 608.161C1344.93 607.42 1345.8 606.479 1346.45 605.394C1347.11 604.309 1347.53 603.103 1347.71 601.849L1386.54 336.945C1390.49 306.099 1371.32 269.051 1347.61 236.881ZM1330.03 589.467L1065.18 550.642L1120.74 171.63L1268.25 193.254L1268.25 193.285C1274.74 193.841 1279.36 201.009 1281.48 216.164C1283.31 230.567 1281.64 248.752 1279.8 261.241C1278.48 270.429 1277.13 276.516 1277.13 276.516L1274.88 286.482L1285.01 288.077C1285.05 288.084 1308.4 291.791 1330.58 300.364C1351.93 308.357 1367.76 320.374 1367.81 331.357C1367.74 332.336 1367.63 333.278 1367.47 334.182L1330.03 589.467Z" fill="white"/>
<path d="M689.528 348.539L701.109 427.538L780.108 415.957C781.838 452.942 755.25 485.928 717.842 491.412C677.996 497.253 640.962 469.689 635.12 429.843C629.637 392.435 653.603 357.498 689.528 348.539ZM703.957 346.424C720.76 345.66 737.31 350.729 750.803 360.772C764.296 370.815 773.902 385.213 777.993 401.528L713.423 410.994L703.957 346.424Z" fill="white"/>
<path d="M789.803 201.046C759.004 178.825 726.864 162.107 702.573 162.731C701.197 162.736 699.824 162.832 698.461 163.018L541.467 186.033C540.212 186.201 539.003 186.621 537.915 187.27C536.827 187.918 535.881 188.78 535.135 189.803C533.618 191.857 532.973 194.426 533.34 196.952L591.699 595.041C591.882 596.291 592.31 597.492 592.958 598.576C593.606 599.661 594.462 600.607 595.476 601.36C596.49 602.114 597.642 602.66 598.867 602.967C600.093 603.275 601.366 603.338 602.616 603.152L886.519 561.533C887.769 561.361 888.971 560.939 890.054 560.292C891.137 559.645 892.078 558.786 892.821 557.767C893.592 556.762 894.151 555.612 894.465 554.385C894.779 553.158 894.842 551.881 894.648 550.629L855.814 285.726C850.748 255.043 821.748 225.057 789.803 201.046ZM874.166 543.841L609.309 582.668L553.747 203.657L701.264 182.031L701.269 182.062C707.644 180.733 714.125 186.273 720.507 200.182C726.4 213.452 730.019 231.35 731.835 243.844C733.212 253.023 733.666 259.241 733.666 259.241L734.37 269.435L744.528 268.056C744.574 268.049 768.005 264.899 791.712 266.745C814.455 268.275 833.069 275.243 836.267 285.749C836.481 286.707 836.645 287.641 836.757 288.551L874.166 543.841Z" fill="white"/>
<path d="M830 243H1097C1098.66 243 1100 244.343 1100 246V548H830V243Z" fill="#151B23"/>
<rect x="830" y="168" width="145" height="90" fill="#151B23"/>
<path d="M1064.75 196.641C1037.5 170.187 1008.12 148.984 984 146.078C982.638 145.884 981.266 145.779 979.89 145.766H821.219C819.952 145.75 818.695 145.991 817.524 146.474C816.353 146.958 815.293 147.673 814.406 148.578C812.608 150.39 811.597 152.838 811.594 155.391V557.734C811.594 558.998 811.843 560.248 812.326 561.415C812.81 562.582 813.52 563.642 814.414 564.535C815.308 565.427 816.369 566.135 817.536 566.617C818.704 567.099 819.955 567.346 821.219 567.344H1108.16C1109.42 567.355 1110.67 567.112 1111.83 566.629C1113 566.146 1114.05 565.432 1114.94 564.531C1115.85 563.649 1116.57 562.592 1117.05 561.424C1117.54 560.256 1117.79 559.001 1117.78 557.734V290C1117.22 258.906 1092.87 225.031 1064.75 196.641ZM1098.5 548.047H830.812V164.984H979.906V165.016C986.406 164.625 992.015 171.047 996.312 185.734C1000.22 199.719 1001.2 217.953 1001.19 230.578C1001.22 239.859 1000.77 246.078 1000.77 246.078L999.984 256.266L1010.23 256.375C1010.28 256.375 1033.92 256.656 1057.11 261.922C1079.39 266.734 1096.8 276.328 1098.44 287.187C1098.51 288.167 1098.54 289.115 1098.52 290.031L1098.5 548.047Z" fill="white"/>
<rect x="860" y="345" width="209" height="132" rx="20" fill="white"/>
<path d="M876.807 447V374.273H901.38C907.086 374.273 911.75 375.303 915.372 377.362C919.018 379.398 921.717 382.156 923.469 385.636C925.22 389.116 926.096 392.999 926.096 397.284C926.096 401.569 925.22 405.464 923.469 408.967C921.74 412.471 919.065 415.265 915.443 417.348C911.821 419.408 907.181 420.438 901.522 420.438H883.909V412.625H901.238C905.145 412.625 908.281 411.95 910.649 410.601C913.016 409.251 914.733 407.429 915.798 405.132C916.887 402.812 917.432 400.196 917.432 397.284C917.432 394.372 916.887 391.768 915.798 389.472C914.733 387.175 913.004 385.376 910.613 384.074C908.222 382.748 905.05 382.085 901.096 382.085H885.613V447H876.807ZM962.726 447H940.283V374.273H963.721C970.776 374.273 976.812 375.729 981.831 378.641C986.85 381.529 990.697 385.684 993.373 391.105C996.048 396.503 997.385 402.966 997.385 410.494C997.385 418.07 996.036 424.592 993.337 430.061C990.638 435.506 986.708 439.696 981.547 442.632C976.386 445.544 970.113 447 962.726 447ZM949.09 439.188H962.158C968.171 439.188 973.155 438.027 977.108 435.707C981.062 433.387 984.009 430.085 985.951 425.8C987.892 421.515 988.863 416.413 988.863 410.494C988.863 404.623 987.904 399.569 985.986 395.331C984.069 391.07 981.204 387.803 977.393 385.53C973.581 383.233 968.834 382.085 963.152 382.085H949.09V439.188ZM1012.16 447V374.273H1055.77V382.085H1020.96V406.659H1052.5V414.472H1020.96V447H1012.16Z" fill="#151B23"/>
<path d="M868.545 919.364C866.97 919.364 865.587 918.989 864.398 918.239C863.216 917.489 862.292 916.439 861.625 915.091C860.966 913.742 860.636 912.167 860.636 910.364C860.636 908.545 860.966 906.958 861.625 905.602C862.292 904.246 863.216 903.193 864.398 902.443C865.587 901.693 866.97 901.318 868.545 901.318C870.121 901.318 871.5 901.693 872.682 902.443C873.871 903.193 874.795 904.246 875.455 905.602C876.121 906.958 876.455 908.545 876.455 910.364C876.455 912.167 876.121 913.742 875.455 915.091C874.795 916.439 873.871 917.489 872.682 918.239C871.5 918.989 870.121 919.364 868.545 919.364ZM868.545 916.955C869.742 916.955 870.727 916.648 871.5 916.034C872.273 915.42 872.845 914.614 873.216 913.614C873.587 912.614 873.773 911.53 873.773 910.364C873.773 909.197 873.587 908.11 873.216 907.102C872.845 906.095 872.273 905.28 871.5 904.659C870.727 904.038 869.742 903.727 868.545 903.727C867.348 903.727 866.364 904.038 865.591 904.659C864.818 905.28 864.246 906.095 863.875 907.102C863.504 908.11 863.318 909.197 863.318 910.364C863.318 911.53 863.504 912.614 863.875 913.614C864.246 914.614 864.818 915.42 865.591 916.034C866.364 916.648 867.348 916.955 868.545 916.955ZM880.548 919V901.545H883.139V904.182H883.321C883.639 903.318 884.215 902.617 885.048 902.08C885.882 901.542 886.821 901.273 887.866 901.273C888.063 901.273 888.31 901.277 888.605 901.284C888.901 901.292 889.124 901.303 889.276 901.318V904.045C889.185 904.023 888.976 903.989 888.651 903.943C888.332 903.89 887.995 903.864 887.639 903.864C886.791 903.864 886.033 904.042 885.366 904.398C884.707 904.746 884.185 905.231 883.798 905.852C883.42 906.466 883.23 907.167 883.23 907.955V919H880.548ZM908.045 919.364C906.591 919.364 905.307 918.996 904.193 918.261C903.08 917.519 902.208 916.473 901.58 915.125C900.951 913.769 900.636 912.167 900.636 910.318C900.636 908.485 900.951 906.894 901.58 905.545C902.208 904.197 903.083 903.155 904.205 902.42C905.326 901.686 906.621 901.318 908.091 901.318C909.227 901.318 910.125 901.508 910.784 901.886C911.451 902.258 911.958 902.682 912.307 903.159C912.663 903.629 912.939 904.015 913.136 904.318H913.364V895.727H916.045V919H913.455V916.318H913.136C912.939 916.636 912.659 917.038 912.295 917.523C911.932 918 911.413 918.428 910.739 918.807C910.064 919.178 909.167 919.364 908.045 919.364ZM908.409 916.955C909.485 916.955 910.394 916.674 911.136 916.114C911.879 915.545 912.443 914.761 912.83 913.761C913.216 912.754 913.409 911.591 913.409 910.273C913.409 908.97 913.22 907.83 912.841 906.852C912.462 905.867 911.902 905.102 911.159 904.557C910.417 904.004 909.5 903.727 908.409 903.727C907.273 903.727 906.326 904.019 905.568 904.602C904.818 905.178 904.254 905.962 903.875 906.955C903.504 907.939 903.318 909.045 903.318 910.273C903.318 911.515 903.508 912.644 903.886 913.659C904.273 914.667 904.841 915.47 905.591 916.068C906.348 916.659 907.288 916.955 908.409 916.955ZM921.33 919V901.545H923.92V904.182H924.102C924.42 903.318 924.996 902.617 925.83 902.08C926.663 901.542 927.602 901.273 928.648 901.273C928.845 901.273 929.091 901.277 929.386 901.284C929.682 901.292 929.905 901.303 930.057 901.318V904.045C929.966 904.023 929.758 903.989 929.432 903.943C929.114 903.89 928.777 903.864 928.42 903.864C927.572 903.864 926.814 904.042 926.148 904.398C925.489 904.746 924.966 905.231 924.58 905.852C924.201 906.466 924.011 907.167 924.011 907.955V919H921.33ZM939.795 919.364C938.22 919.364 936.837 918.989 935.648 918.239C934.466 917.489 933.542 916.439 932.875 915.091C932.216 913.742 931.886 912.167 931.886 910.364C931.886 908.545 932.216 906.958 932.875 905.602C933.542 904.246 934.466 903.193 935.648 902.443C936.837 901.693 938.22 901.318 939.795 901.318C941.371 901.318 942.75 901.693 943.932 902.443C945.121 903.193 946.045 904.246 946.705 905.602C947.371 906.958 947.705 908.545 947.705 910.364C947.705 912.167 947.371 913.742 946.705 915.091C946.045 916.439 945.121 917.489 943.932 918.239C942.75 918.989 941.371 919.364 939.795 919.364ZM939.795 916.955C940.992 916.955 941.977 916.648 942.75 916.034C943.523 915.42 944.095 914.614 944.466 913.614C944.837 912.614 945.023 911.53 945.023 910.364C945.023 909.197 944.837 908.11 944.466 907.102C944.095 906.095 943.523 905.28 942.75 904.659C941.977 904.038 940.992 903.727 939.795 903.727C938.598 903.727 937.614 904.038 936.841 904.659C936.068 905.28 935.496 906.095 935.125 907.102C934.754 908.11 934.568 909.197 934.568 910.364C934.568 911.53 934.754 912.614 935.125 913.614C935.496 914.614 936.068 915.42 936.841 916.034C937.614 916.648 938.598 916.955 939.795 916.955ZM951.798 925.545V901.545H954.389V904.318H954.707C954.904 904.015 955.177 903.629 955.526 903.159C955.882 902.682 956.389 902.258 957.048 901.886C957.715 901.508 958.616 901.318 959.753 901.318C961.223 901.318 962.518 901.686 963.639 902.42C964.76 903.155 965.635 904.197 966.264 905.545C966.893 906.894 967.207 908.485 967.207 910.318C967.207 912.167 966.893 913.769 966.264 915.125C965.635 916.473 964.764 917.519 963.651 918.261C962.537 918.996 961.253 919.364 959.798 919.364C958.677 919.364 957.779 919.178 957.105 918.807C956.431 918.428 955.912 918 955.548 917.523C955.185 917.038 954.904 916.636 954.707 916.318H954.48V925.545H951.798ZM954.435 910.273C954.435 911.591 954.628 912.754 955.014 913.761C955.401 914.761 955.965 915.545 956.707 916.114C957.45 916.674 958.359 916.955 959.435 916.955C960.556 916.955 961.491 916.659 962.241 916.068C962.999 915.47 963.567 914.667 963.946 913.659C964.332 912.644 964.526 911.515 964.526 910.273C964.526 909.045 964.336 907.939 963.957 906.955C963.586 905.962 963.022 905.178 962.264 904.602C961.514 904.019 960.571 903.727 959.435 903.727C958.344 903.727 957.427 904.004 956.685 904.557C955.942 905.102 955.382 905.867 955.003 906.852C954.624 907.83 954.435 908.97 954.435 910.273ZM980.662 919V895.727H988.526C990.351 895.727 991.844 896.057 993.003 896.716C994.17 897.367 995.033 898.25 995.594 899.364C996.154 900.477 996.435 901.72 996.435 903.091C996.435 904.462 996.154 905.708 995.594 906.83C995.041 907.951 994.185 908.845 993.026 909.511C991.866 910.17 990.382 910.5 988.571 910.5H982.935V908H988.48C989.73 908 990.734 907.784 991.491 907.352C992.249 906.92 992.798 906.337 993.139 905.602C993.488 904.86 993.662 904.023 993.662 903.091C993.662 902.159 993.488 901.326 993.139 900.591C992.798 899.856 992.245 899.28 991.48 898.864C990.715 898.439 989.7 898.227 988.435 898.227H983.48V919H980.662ZM1008.16 919H1000.97V895.727H1008.47C1010.73 895.727 1012.66 896.193 1014.27 897.125C1015.88 898.049 1017.11 899.379 1017.96 901.114C1018.82 902.841 1019.25 904.909 1019.25 907.318C1019.25 909.742 1018.82 911.83 1017.95 913.58C1017.09 915.322 1015.83 916.663 1014.18 917.602C1012.53 918.534 1010.52 919 1008.16 919ZM1003.79 916.5H1007.97C1009.9 916.5 1011.49 916.129 1012.76 915.386C1014.02 914.644 1014.97 913.587 1015.59 912.216C1016.21 910.845 1016.52 909.212 1016.52 907.318C1016.52 905.439 1016.21 903.822 1015.6 902.466C1014.99 901.102 1014.07 900.057 1012.85 899.33C1011.63 898.595 1010.11 898.227 1008.29 898.227H1003.79V916.5ZM1023.97 919V895.727H1037.93V898.227H1026.79V906.091H1036.88V908.591H1026.79V919H1023.97ZM1054.07 908.5V919H1051.39V895.727H1054.07V904.273H1054.3C1054.71 903.371 1055.32 902.655 1056.14 902.125C1056.97 901.587 1058.07 901.318 1059.44 901.318C1060.63 901.318 1061.67 901.557 1062.56 902.034C1063.46 902.504 1064.15 903.227 1064.64 904.205C1065.14 905.174 1065.39 906.409 1065.39 907.909V919H1062.71V908.091C1062.71 906.705 1062.35 905.633 1061.63 904.875C1060.92 904.11 1059.93 903.727 1058.66 903.727C1057.79 903.727 1057 903.913 1056.3 904.284C1055.61 904.655 1055.07 905.197 1054.66 905.909C1054.27 906.621 1054.07 907.485 1054.07 908.5ZM1077.62 919.364C1075.93 919.364 1074.48 918.992 1073.26 918.25C1072.05 917.5 1071.12 916.455 1070.46 915.114C1069.81 913.765 1069.48 912.197 1069.48 910.409C1069.48 908.621 1069.81 907.045 1070.46 905.682C1071.12 904.311 1072.03 903.242 1073.21 902.477C1074.39 901.705 1075.77 901.318 1077.34 901.318C1078.25 901.318 1079.15 901.47 1080.04 901.773C1080.92 902.076 1081.73 902.568 1082.46 903.25C1083.18 903.924 1083.76 904.818 1084.2 905.932C1084.63 907.045 1084.84 908.417 1084.84 910.045V911.182H1071.39V908.864H1082.12C1082.12 907.879 1081.92 907 1081.53 906.227C1081.14 905.455 1080.59 904.845 1079.87 904.398C1079.15 903.951 1078.31 903.727 1077.34 903.727C1076.28 903.727 1075.35 903.992 1074.57 904.523C1073.8 905.045 1073.2 905.727 1072.79 906.568C1072.37 907.409 1072.16 908.311 1072.16 909.273V910.818C1072.16 912.136 1072.39 913.254 1072.84 914.17C1073.31 915.08 1073.95 915.773 1074.76 916.25C1075.58 916.72 1076.53 916.955 1077.62 916.955C1078.32 916.955 1078.96 916.856 1079.53 916.659C1080.1 916.455 1080.6 916.152 1081.01 915.75C1081.43 915.341 1081.75 914.833 1081.98 914.227L1084.57 914.955C1084.3 915.833 1083.84 916.606 1083.2 917.273C1082.55 917.932 1081.76 918.447 1080.81 918.818C1079.86 919.182 1078.8 919.364 1077.62 919.364ZM1088.92 919V901.545H1091.51V904.182H1091.7C1092.01 903.318 1092.59 902.617 1093.42 902.08C1094.26 901.542 1095.2 901.273 1096.24 901.273C1096.44 901.273 1096.68 901.277 1096.98 901.284C1097.28 901.292 1097.5 901.303 1097.65 901.318V904.045C1097.56 904.023 1097.35 903.989 1097.03 903.943C1096.71 903.89 1096.37 903.864 1096.01 903.864C1095.17 903.864 1094.41 904.042 1093.74 904.398C1093.08 904.746 1092.56 905.231 1092.17 905.852C1091.79 906.466 1091.61 907.167 1091.61 907.955V919H1088.92ZM1107.62 919.364C1105.93 919.364 1104.48 918.992 1103.26 918.25C1102.05 917.5 1101.12 916.455 1100.46 915.114C1099.81 913.765 1099.48 912.197 1099.48 910.409C1099.48 908.621 1099.81 907.045 1100.46 905.682C1101.12 904.311 1102.03 903.242 1103.21 902.477C1104.39 901.705 1105.77 901.318 1107.34 901.318C1108.25 901.318 1109.15 901.47 1110.04 901.773C1110.92 902.076 1111.73 902.568 1112.46 903.25C1113.18 903.924 1113.76 904.818 1114.2 905.932C1114.63 907.045 1114.84 908.417 1114.84 910.045V911.182H1101.39V908.864H1112.12C1112.12 907.879 1111.92 907 1111.53 906.227C1111.14 905.455 1110.59 904.845 1109.87 904.398C1109.15 903.951 1108.31 903.727 1107.34 903.727C1106.28 903.727 1105.35 903.992 1104.57 904.523C1103.8 905.045 1103.2 905.727 1102.79 906.568C1102.37 907.409 1102.16 908.311 1102.16 909.273V910.818C1102.16 912.136 1102.39 913.254 1102.84 914.17C1103.31 915.08 1103.95 915.773 1104.76 916.25C1105.58 916.72 1106.53 916.955 1107.62 916.955C1108.32 916.955 1108.96 916.856 1109.53 916.659C1110.1 916.455 1110.6 916.152 1111.01 915.75C1111.43 915.341 1111.75 914.833 1111.98 914.227L1114.57 914.955C1114.3 915.833 1113.84 916.606 1113.2 917.273C1112.55 917.932 1111.76 918.447 1110.81 918.818C1109.86 919.182 1108.8 919.364 1107.62 919.364Z" fill="white"/>
<rect x="22" y="18" width="1877" height="1044" rx="30" stroke="white" stroke-width="5" stroke-linejoin="round" stroke-dasharray="10 10"/>
</svg>
